# xmcd
#
# Track frame offsets: 
#        183
#        14300
#        27723
#        41810
#        55568
#        69858
#        82615
#        95738
#        105778
#        117878
#        132353
#        147585
#        159800
#        174138
#        187533
#        199743
#        214415
#        229713
#        243030
#        255818
#        271533
#        286050
#        299958
#        315213
#        326393
#
# Disc length: 4560 seconds
#
# Revision: 4
# Processed by: cddbd v1.5.2PL0 Copyright (c) Steve Scherf et al.
# Submitted via: ExactAudioCopyFreeDBPlugin 1.0
#
DISCID=3f11ce19
DTITLE=Muddy Waters - The Complete Muddy Waters on Chess Records, 1947
DTITLE=1967 [Charly Red Box]
DYEAR=1992
DGENRE=Blues
TTITLE0=Rollin' Stone
TTITLE1=Walking Blues
TTITLE2=You're Gonna Need My Help I Said
TTITLE3=Sad Letter Blues
TTITLE4=Early Morning Blues
TTITLE5=Appealing Blues
TTITLE6=Louisiana Blues
TTITLE7=Evans Shuffle
TTITLE8=Long Distance Call
TTITLE9=Too Young to Know
TTITLE10=Honey Bee
TTITLE11=Howling Wolf
TTITLE12=Country Boy
TTITLE13=She Moves Me
TTITLE14=My Fault
TTITLE15=Still a Fool
TTITLE16=They Call Me Muddy Waters
TTITLE17=All Night Long
TTITLE18=Stuff You Gotta Watch
TTITLE19=Lonesome Day
TTITLE20=Please Have Mercy
TTITLE21=Who's Gonna Be Your Sweet Man
TTITLE22=Standing Around Crying
TTITLE23=Gone to Main Street
TTITLE24=Iodine in My Coffee
EXTD=
EXTT0=
EXTT1=
EXTT2=
EXTT3=
EXTT4=
EXTT5=
EXTT6=
EXTT7=
EXTT8=
EXTT9=
EXTT10=
EXTT11=
EXTT12=
EXTT13=
EXTT14=
EXTT15=
EXTT16=
EXTT17=
EXTT18=
EXTT19=
EXTT20=
EXTT21=
EXTT22=
EXTT23=
EXTT24=
PLAYORDER=
